<?xml version="1.0" standalone="no"?>
<!DOCTYPE svg PUBLIC "-//W3C//DTD SVG 20010904//EN"
 "http://www.w3.org/TR/2001/REC-SVG-20010904/DTD/svg10.dtd">
<svg version="1.0" xmlns="http://www.w3.org/2000/svg"
 width="512.000000pt" height="512.000000pt" viewBox="0 0 512.000000 512.000000"
 preserveAspectRatio="xMidYMid meet">
<metadata>
Created by potrace 1.14, written by Peter Selinger 2001-2017
</metadata>
<g transform="translate(0.000000,512.000000) scale(0.100000,-0.100000)"
fill="#000000" stroke="none">
<path d="M2534 4383 c7 -12 -5 -18 -27 -14 -36 6 -125 6 -121 0 2 -4 0 -10 -6
-14 -5 -3 -10 2 -10 12 0 15 -2 15 -9 4 -11 -18 -44 -25 -34 -8 3 7 -4 3 -17
-8 l-23 -20 13 25 c13 24 12 25 -7 8 -11 -10 -26 -18 -34 -18 -8 0 -21 -6 -27
-12 -10 -10 -15 -10 -22 2 -6 10 -10 11 -10 3 0 -7 -7 -10 -17 -6 -11 5 -14 3
-8 -6 6 -10 3 -11 -13 -2 -16 9 -23 7 -36 -12 -9 -12 -14 -17 -11 -10 3 6 1
14 -5 18 -5 3 -10 0 -10 -8 0 -8 -7 -17 -15 -21 -8 -3 -15 -1 -15 3 0 5 6 12
13 14 9 4 9 6 -1 6 -7 1 -15 -5 -18 -13 -3 -8 -15 -13 -26 -11 -15 3 -17 1 -9
-8 7 -9 5 -13 -9 -13 -10 0 -17 3 -15 6 2 4 -2 7 -9 7 -9 0 -12 -7 -8 -16 5
-14 4 -14 -13 -1 -15 12 -17 12 -10 1 6 -11 3 -13 -13 -9 -14 4 -20 2 -15 -5
4 -7 0 -8 -11 -4 -11 5 -15 3 -10 -5 5 -8 2 -9 -10 -5 -14 6 -17 3 -12 -8 4
-13 2 -14 -14 -5 -11 6 -20 7 -19 3 3 -20 -2 -27 -11 -13 -8 13 -10 12 -10 -4
0 -16 -2 -17 -17 -5 -11 10 -14 10 -9 2 4 -8 2 -13 -4 -13 -6 0 -8 -4 -5 -10
9 -14 -9 -12 -24 3 -10 10 -11 8 -5 -7 5 -13 4 -17 -3 -13 -6 4 -13 0 -17 -8
-3 -8 -11 -15 -18 -15 -9 0 -9 3 2 11 12 9 12 10 -3 5 -10 -3 -21 -6 -23 -6
-3 0 -3 -4 0 -9 3 -5 -2 -15 -11 -22 -12 -10 -14 -10 -9 -1 4 7 1 12 -9 12 -9
0 -13 -4 -10 -10 3 -5 -1 -10 -10 -10 -9 0 -13 -4 -10 -10 6 -9 -8 -14 -27
-11 -5 0 -8 -4 -8 -10 0 -8 -6 -7 -17 2 -15 13 -15 12 -3 -11 12 -23 12 -24
-4 -11 -14 12 -16 12 -9 -4 5 -14 3 -17 -10 -12 -21 8 -34 -12 -16 -24 8 -5 9
-9 4 -9 -6 0 -17 6 -24 13 -11 10 -13 10 -7 0 6 -12 -5 -17 -26 -14 -4 0 -5
-5 -2 -13 3 -8 -4 -16 -16 -19 -14 -3 -19 -10 -15 -17 6 -9 2 -9 -14 -1 -18
10 -20 9 -14 -5 5 -13 3 -15 -8 -9 -8 4 -11 4 -6 0 9 -10 -21 -45 -40 -45 -7
0 -16 -7 -19 -15 -4 -8 -11 -12 -17 -8 -6 4 -8 0 -4 -11 4 -10 3 -15 -3 -11
-6 3 -13 -1 -16 -9 -3 -9 -13 -16 -21 -16 -10 0 -14 -7 -10 -20 3 -10 2 -19
-2 -18 -20 2 -31 -4 -31 -17 0 -9 -6 -12 -15 -9 -11 5 -13 2 -9 -10 4 -10 1
-16 -10 -16 -18 0 -39 -33 -28 -45 4 -5 -2 -5 -12 -1 -16 5 -17 4 -6 -9 11
-13 10 -14 -5 -9 -14 6 -16 4 -10 -6 6 -10 4 -12 -8 -7 -12 4 -14 2 -10 -10 4
-11 3 -14 -6 -9 -14 9 -11 -15 4 -27 6 -5 -1 -5 -14 -2 -16 5 -21 4 -17 -4 4
-6 2 -11 -4 -11 -6 0 -8 -5 -4 -12 5 -8 2 -9 -11 -4 -16 6 -16 4 -4 -11 8 -9
10 -14 4 -11 -5 3 -16 0 -23 -8 -10 -11 -10 -14 0 -15 7 0 3 -5 -10 -11 -13
-7 -21 -17 -18 -25 3 -7 -1 -13 -9 -13 -8 0 -14 -6 -13 -12 2 -7 -2 -12 -9
-11 -7 2 -10 -7 -7 -24 4 -23 3 -25 -11 -13 -13 11 -15 10 -9 -4 3 -9 2 -16
-4 -16 -5 0 -8 -11 -6 -26 2 -22 0 -23 -13 -12 -15 12 -15 10 -4 -11 8 -15 9
-21 2 -17 -6 4 -11 2 -11 -4 0 -6 -4 -8 -10 -5 -6 3 -7 -1 -4 -10 4 -8 1 -21
-5 -29 -6 -7 -7 -17 -3 -22 4 -4 -1 -2 -10 5 -16 12 -16 10 -8 -18 5 -19 5
-29 -1 -26 -5 4 -14 3 -20 -1 -8 -4 -7 -9 2 -15 10 -6 10 -9 2 -9 -7 0 -10 -7
-6 -17 4 -10 2 -14 -5 -9 -6 3 -13 2 -17 -4 -3 -5 -1 -10 5 -10 6 0 8 -5 5
-10 -4 -6 -12 -7 -18 -3 -7 4 -5 -2 3 -12 12 -15 12 -17 1 -10 -11 6 -13 3 -9
-13 4 -12 0 -23 -8 -26 -7 -3 -11 -12 -8 -21 3 -8 1 -15 -5 -15 -6 0 -11 -12
-11 -26 0 -14 -4 -23 -10 -19 -6 4 -6 -3 0 -21 10 -25 9 -26 -7 -13 -10 7 -15
9 -11 5 4 -5 2 -16 -5 -24 -9 -13 -9 -14 1 -8 6 4 12 3 12 -2 0 -6 -7 -13 -16
-16 -15 -6 -15 -8 2 -27 14 -16 15 -19 2 -14 -9 4 -19 2 -23 -4 -3 -6 0 -11 7
-11 8 0 6 -5 -5 -11 -14 -8 -16 -14 -6 -25 9 -11 9 -14 -1 -14 -10 0 -10 -3
-1 -14 9 -11 9 -16 0 -22 -8 -5 -10 -3 -4 7 6 11 5 12 -5 2 -10 -10 -11 -15
-1 -27 9 -11 9 -16 0 -22 -8 -5 -9 -3 -4 6 5 9 4 11 -4 6 -9 -6 -9 -11 0 -22
9 -11 9 -14 -1 -14 -8 0 -10 -3 -7 -7 4 -3 1 -13 -6 -21 -9 -13 -9 -14 1 -8
17 10 15 -5 -5 -33 -9 -14 -11 -21 -5 -17 6 3 13 2 16 -3 3 -5 -1 -12 -9 -15
-14 -5 -14 -9 2 -33 17 -27 17 -27 0 -14 -10 8 -20 11 -24 7 -3 -3 -2 -6 4 -6
5 0 10 -6 10 -12 0 -7 2 -17 3 -23 5 -21 0 -36 -11 -30 -6 4 -5 -2 2 -13 11
-17 10 -24 -2 -38 -8 -10 -9 -15 -3 -11 7 4 15 0 18 -9 3 -8 2 -12 -3 -9 -5 3
-12 1 -16 -5 -3 -5 -1 -10 5 -10 6 0 8 -5 3 -12 -11 -19 -13 -39 -2 -32 13 7
11 -10 -2 -23 -8 -8 -7 -13 2 -18 8 -6 10 -4 4 5 -5 9 -4 11 3 6 8 -5 9 -13 3
-24 -4 -9 -6 -23 -4 -29 3 -7 -1 -13 -9 -13 -9 -1 -8 -3 3 -10 12 -7 14 -19 9
-58 -5 -43 -4 -49 9 -44 12 4 12 1 -3 -16 -17 -20 -18 -22 -2 -28 14 -5 15 -9
4 -15 -10 -7 -10 -9 2 -9 13 0 13 -1 0 -10 -11 -7 -11 -10 -2 -10 7 0 12 -6
11 -12 -4 -37 2 -69 13 -62 7 4 8 3 4 -5 -4 -6 -2 -20 6 -29 12 -15 11 -16 -5
-3 -22 17 -22 3 1 -22 16 -20 16 -20 -3 -14 -17 6 -18 5 -4 -5 9 -7 14 -19 11
-27 -3 -9 0 -11 8 -6 10 6 12 4 7 -7 -3 -9 0 -21 6 -28 9 -10 9 -11 0 -6 -9 5
-11 2 -7 -8 3 -9 11 -13 18 -9 6 4 5 -1 -3 -10 -9 -11 -10 -17 -2 -17 6 0 11
-5 11 -11 0 -5 -6 -7 -12 -4 -7 4 -6 1 3 -7 9 -7 14 -19 11 -27 -3 -8 0 -11 6
-7 7 4 10 -4 8 -21 -1 -17 5 -33 16 -41 9 -7 15 -19 12 -27 -4 -8 -2 -15 3
-15 5 0 10 -9 11 -20 4 -44 6 -50 14 -50 5 0 6 -5 3 -10 -3 -6 -1 -10 5 -10 6
0 8 -4 5 -10 -3 -5 0 -10 7 -10 9 0 9 -3 -2 -10 -12 -8 -12 -10 5 -10 17 0 17
-2 5 -10 -12 -8 -12 -10 5 -10 17 0 17 -2 5 -10 -10 -6 -11 -10 -2 -10 6 0 12
-5 12 -11 0 -5 -6 -7 -12 -4 -7 4 -3 -2 10 -13 22 -21 28 -37 15 -45 -5 -2 -3
-2 4 -1 20 5 46 -27 34 -39 -8 -8 -5 -15 11 -25 17 -10 18 -12 4 -7 -16 5 -17
3 -6 -10 7 -8 17 -12 22 -9 6 4 4 -4 -3 -17 -11 -22 -11 -23 4 -10 14 11 17
11 18 0 1 -8 1 -17 0 -21 0 -5 3 -8 9 -8 5 0 10 -9 10 -19 0 -11 4 -23 10 -26
6 -3 8 2 5 12 -3 10 1 6 8 -10 7 -15 17 -24 21 -20 5 5 3 -2 -3 -14 -10 -20
-9 -22 6 -16 12 5 15 2 10 -10 -4 -11 -2 -14 7 -11 8 3 17 0 22 -7 5 -8 3 -10
-7 -5 -8 4 -6 1 4 -7 19 -16 24 -32 5 -21 -7 4 -8 3 -4 -4 4 -6 14 -8 23 -5 9
4 14 2 11 -3 -8 -12 17 -35 28 -26 5 4 2 -2 -6 -12 -14 -18 -13 -19 2 -13 17
6 24 -8 19 -37 -1 -5 5 -3 14 4 8 7 18 10 22 6 3 -3 1 -6 -5 -6 -7 0 -12 -5
-12 -11 0 -5 5 -7 12 -3 8 5 9 2 5 -10 -5 -12 0 -19 17 -26 29 -11 46 -33 19
-24 -15 5 -16 4 -3 -5 8 -6 23 -11 33 -11 10 0 17 -8 17 -20 0 -11 5 -20 11
-20 5 0 7 -4 4 -10 -3 -6 1 -7 9 -4 11 4 16 0 16 -11 0 -13 6 -16 21 -12 12 3
18 3 15 0 -3 -4 0 -13 7 -22 11 -14 10 -15 -8 -1 -19 14 -19 14 -6 -3 7 -9 21
-16 30 -15 10 2 17 -5 19 -19 2 -15 10 -23 22 -23 10 0 22 -5 26 -12 5 -7 3
-8 -7 -3 -11 7 -11 5 1 -9 8 -11 16 -14 18 -7 2 6 8 8 13 5 6 -3 5 -11 -2 -20
-14 -17 2 -19 20 -2 10 11 12 10 9 -2 -2 -9 4 -14 15 -14 14 2 16 -3 11 -20
-5 -17 -4 -19 7 -8 18 16 34 15 20 -2 -9 -11 -6 -13 19 -10 22 3 29 0 24 -8
-5 -8 -2 -9 10 -5 14 6 15 4 5 -16 -11 -20 -11 -21 5 -8 14 12 16 12 10 -4 -5
-11 -4 -16 3 -12 5 3 10 0 10 -8 0 -8 -5 -11 -10 -8 -6 4 -8 0 -4 -10 3 -9 3
-16 -1 -16 -19 3 -25 -2 -12 -11 13 -8 12 -10 -4 -10 -12 0 -16 -5 -12 -16 3
-8 2 -12 -4 -9 -6 3 -10 -1 -10 -10 0 -9 -4 -13 -10 -10 -6 4 -7 -1 -3 -11 5
-12 3 -15 -6 -9 -10 6 -11 3 -2 -14 10 -18 9 -20 -5 -14 -13 5 -15 3 -9 -7 6
-10 4 -12 -10 -6 -18 7 -18 6 -1 -13 13 -14 14 -21 5 -27 -8 -5 -10 -3 -4 6 5
9 4 11 -4 6 -7 -5 -9 -16 -5 -28 3 -11 2 -18 -2 -15 -5 3 -17 -6 -27 -19 -10
-13 -14 -24 -8 -24 5 0 11 5 13 12 3 9 6 9 12 0 4 -7 2 -12 -4 -12 -6 0 -8 -4
-5 -10 4 -6 -1 -7 -12 -3 -16 6 -17 5 -3 -12 8 -10 11 -16 5 -13 -5 3 -16 0
-23 -8 -7 -8 -9 -14 -4 -14 5 0 9 -7 9 -15 0 -11 -4 -12 -13 -4 -10 8 -12 5
-8 -16 3 -19 1 -24 -7 -19 -8 5 -9 3 -3 -7 14 -22 13 -38 -1 -33 -7 3 -16 0
-21 -7 -4 -7 -3 -10 3 -6 6 4 13 0 17 -8 3 -10 -1 -15 -12 -15 -13 0 -14 -2
-3 -9 11 -7 11 -9 0 -14 -11 -4 -11 -6 -1 -6 7 -1 10 -6 7 -11 -5 -8 -11 -8
-19 -1 -10 8 -12 5 -11 -12 1 -12 -2 -27 -7 -34 -6 -7 -4 -14 3 -19 8 -5 9 -3
4 6 -5 9 -4 11 4 6 15 -10 5 -26 -17 -27 -14 0 -13 -2 3 -9 27 -12 2408 -12
2400 -1 -3 5 -2 11 2 14 5 2 2 2 -6 0 -8 -2 -11 2 -7 12 3 8 0 15 -7 15 -9 0
-8 3 1 9 11 6 10 10 -3 15 -14 5 -15 9 -5 21 10 12 10 15 -1 15 -15 0 -19 47
-6 67 6 9 3 11 -9 6 -14 -5 -16 -2 -12 15 4 12 1 25 -4 29 -6 3 -8 2 -5 -4 3
-5 0 -10 -7 -10 -8 0 -12 6 -9 14 3 7 -1 21 -8 31 -10 12 -7 12 10 -3 l24 -20
-16 26 c-10 14 -14 29 -10 34 5 4 0 5 -9 2 -10 -4 -18 -2 -18 3 0 6 7 10 16
10 8 0 12 5 9 10 -4 6 -10 8 -15 5 -5 -3 -12 0 -16 6 -4 8 -3 9 4 5 7 -4 12
-2 12 3 0 6 -5 11 -12 11 -6 0 -9 3 -5 6 3 4 -1 13 -9 21 -8 8 -12 19 -9 24 4
5 0 9 -7 10 -7 0 -4 4 7 9 19 8 19 9 -2 9 -12 1 -25 6 -29 13 -4 7 -3 8 4 4 8
-5 10 -2 6 8 -3 9 -10 13 -15 10 -5 -3 -6 1 -3 9 3 8 -2 17 -10 20 -9 4 -16
12 -16 19 0 9 3 9 10 -2 7 -12 9 -10 7 7 0 12 -4 21 -7 21 -25 -2 -30 3 -21
21 9 16 8 18 -9 14 -12 -3 -20 0 -20 6 0 7 5 9 10 6 17 -10 11 6 -8 23 -10 10
-11 13 -2 7 13 -9 13 -8 0 9 -8 10 -19 28 -25 40 -7 11 -18 20 -25 18 -10 -2
-11 0 -2 11 7 8 9 17 5 21 -4 4 0 4 10 0 12 -4 17 -1 17 11 0 11 5 15 14 12 8
-3 22 3 32 14 10 11 23 18 30 15 9 -3 11 1 7 11 -5 12 -2 15 10 10 11 -4 14
-2 10 9 -3 10 2 14 18 14 17 0 20 3 11 9 -10 6 -9 11 4 22 14 11 16 11 10 1
-7 -11 -4 -12 13 -3 11 7 21 17 21 24 0 8 -4 7 -11 -3 -9 -13 -10 -13 -6 0 2
8 12 14 21 14 12 -1 14 1 7 10 -8 9 -5 12 12 12 16 -1 21 4 19 16 -2 13 4 18
20 18 19 0 20 2 8 10 -13 8 -12 10 3 10 11 0 15 4 11 12 -5 8 -2 9 11 4 16 -6
16 -4 4 11 -7 10 -10 15 -5 11 12 -10 71 48 71 69 0 10 5 18 12 18 6 0 15 4
20 9 5 5 2 6 -7 2 -8 -4 -7 -1 4 8 10 8 16 22 13 30 -4 9 -3 15 1 15 20 -3 32
2 30 13 -2 7 2 12 9 13 6 0 15 4 20 9 5 5 3 6 -4 2 -7 -4 -13 -2 -13 3 0 6 8
11 18 11 14 0 15 2 2 10 -13 8 -13 10 2 10 9 0 20 5 24 12 4 7 3 8 -4 4 -8 -5
-10 -2 -6 8 3 9 11 13 17 9 7 -4 8 0 3 12 -5 15 -4 16 8 6 12 -10 13 -8 9 10
-5 17 -3 20 8 14 8 -5 11 -5 7 0 -4 4 0 14 10 22 9 8 11 12 5 8 -7 -3 -13 -1
-13 4 0 6 5 11 11 11 6 0 9 7 5 15 -3 10 1 15 12 15 15 0 15 2 2 10 -11 7 -11
10 -2 10 7 0 11 4 8 9 -3 4 11 25 31 45 20 20 31 36 25 36 -7 0 -12 -4 -12
-10 0 -5 -6 -10 -12 -10 -7 0 -1 12 15 25 31 28 35 37 10 28 -15 -6 -16 -5 -3
9 8 9 19 15 25 15 5 -1 8 11 7 27 -3 18 0 26 7 22 7 -5 8 -1 4 10 -5 13 -3 15
8 9 11 -6 11 -5 3 4 -9 10 -8 19 2 39 8 15 14 33 14 40 0 7 4 11 9 7 5 -3 12
-1 15 4 4 5 1 13 -5 17 -8 5 -9 3 -4 -6 6 -9 4 -11 -5 -5 -10 6 -9 11 4 21 12
8 14 14 6 19 -8 5 -8 11 -1 19 6 7 8 15 5 19 -3 3 4 10 15 17 17 9 19 15 11
30 -10 19 -7 24 15 21 6 -1 1 6 -9 14 -19 14 -19 15 -2 15 15 0 16 3 6 15 -11
13 -10 14 3 9 13 -5 15 0 11 21 -3 15 -1 24 4 21 4 -2 8 7 8 22 -1 17 4 26 12
24 10 -2 11 2 3 15 -7 13 -4 25 11 45 15 22 16 27 4 22 -12 -5 -15 -2 -10 10
3 9 11 13 18 9 6 -4 5 1 -3 10 -12 15 -11 17 5 18 18 0 18 1 -1 9 -11 5 -15 9
-8 9 7 1 10 8 6 18 -4 11 -3 14 5 9 7 -4 12 -3 12 3 0 5 -6 11 -12 14 -10 3
-9 8 2 22 11 14 12 17 1 11 -9 -6 -12 -5 -9 5 3 8 1 22 -4 31 -7 14 -5 16 9
11 15 -6 16 -4 6 8 -9 11 -9 19 -2 26 8 8 8 13 0 17 -7 4 -7 15 -1 31 6 17 6
27 -2 31 -8 5 -5 10 8 15 17 7 17 8 2 8 -20 1 -24 16 -8 26 8 5 8 11 1 19 -7
9 -7 16 1 24 9 9 8 12 -6 12 -9 0 -14 5 -11 10 4 6 12 7 18 4 8 -5 8 -3 0 7
-7 7 -13 17 -13 22 0 4 6 5 13 1 9 -6 9 -4 1 7 -14 18 -25 61 -14 54 4 -3 10
2 13 10 4 9 1 12 -8 9 -11 -5 -12 0 -5 25 6 23 5 35 -6 46 -12 12 -12 15 -2
15 10 0 9 3 -2 10 -12 8 -12 10 -1 10 9 0 5 8 -10 22 -17 14 -19 19 -6 15 9
-4 17 -2 17 3 0 6 -5 10 -11 10 -5 0 -8 4 -4 9 3 5 1 12 -5 16 -6 4 -8 11 -5
16 12 19 14 50 3 43 -8 -5 -9 -1 -4 11 6 16 4 16 -10 4 -16 -13 -16 -12 -6 7
8 16 8 24 -1 34 -9 10 -9 11 1 5 10 -5 11 -3 4 11 -24 48 -41 95 -32 89 5 -3
10 -1 10 4 0 6 -7 11 -15 11 -8 0 -15 5 -15 11 0 6 6 7 13 2 6 -4 4 6 -7 21
-10 16 -12 25 -5 21 8 -6 10 -4 5 4 -5 7 -15 10 -25 7 -14 -5 -14 -4 1 7 21
16 14 28 -10 20 -10 -4 -6 3 8 15 l25 21 -25 -5 c-20 -5 -22 -3 -10 5 13 9 12
11 -5 11 -11 0 -15 4 -10 8 6 4 10 13 9 20 -1 6 -2 17 -3 23 0 5 -5 7 -11 4
-5 -3 -10 -2 -10 4 0 5 6 12 13 15 6 4 2 4 -10 2 -20 -4 -21 -2 -12 16 8 15 8
19 0 14 -6 -4 -11 0 -11 9 0 10 -5 13 -12 9 -9 -5 -8 -2 1 10 11 13 12 19 2
29 -10 9 -11 8 -6 -8 6 -18 5 -18 -5 -3 -6 10 -11 21 -11 25 0 5 -8 16 -16 26
-9 9 -13 17 -8 17 4 0 2 6 -4 13 -6 8 -8 17 -4 20 3 4 1 7 -6 7 -7 0 -9 5 -6
10 3 6 1 10 -5 10 -6 0 -8 5 -5 10 3 6 1 10 -4 10 -6 0 -11 -5 -11 -11 0 -5
-5 -7 -11 -3 -8 4 -7 9 2 16 11 7 11 11 2 15 -7 2 -13 13 -13 24 0 10 -7 19
-15 19 -9 0 -12 6 -8 17 5 13 2 15 -11 10 -9 -4 -15 -3 -11 2 3 5 0 11 -5 13
-6 2 -12 13 -13 25 0 12 -3 20 -5 18 -8 -7 -32 23 -32 39 0 9 -5 16 -11 16 -5
0 -7 -5 -3 -12 4 -7 3 -8 -5 -4 -9 6 -9 11 0 22 9 11 9 14 0 14 -20 0 -43 29
-37 47 6 14 4 14 -11 2 -15 -12 -16 -12 -10 4 4 10 3 16 -1 13 -4 -2 -16 3
-27 11 -16 12 -16 14 -3 10 10 -3 20 -2 23 4 4 5 3 9 -2 8 -28 -5 -45 2 -39
17 3 8 2 12 -4 9 -6 -3 -10 -1 -10 5 0 6 -4 8 -10 5 -9 -6 -14 8 -11 28 1 5
-3 6 -8 3 -5 -3 -12 1 -15 10 -4 9 -13 14 -22 10 -8 -3 -13 -2 -10 3 8 13 -30
52 -52 54 -12 0 -20 4 -20 7 2 20 -5 29 -27 34 -17 4 -25 13 -25 28 0 21 0 21
-15 2 -14 -19 -14 -19 -9 2 4 15 -1 23 -20 32 -14 6 -26 17 -26 24 0 9 -3 8
-10 -2 -6 -10 -10 -11 -10 -2 0 6 -7 12 -15 12 -8 0 -15 6 -15 14 0 9 -7 13
-20 11 -23 -4 -26 5 -7 24 10 10 9 11 -5 6 -20 -8 -81 22 -73 35 9 14 -9 12
-24 -2 -11 -10 -13 -10 -7 0 4 6 2 12 -4 12 -6 0 -8 5 -4 13 5 7 0 6 -11 -3
-17 -14 -18 -13 -12 4 6 14 4 17 -8 12 -8 -3 -15 -1 -15 5 0 6 -7 8 -16 5 -8
-3 -12 -2 -9 3 3 5 -5 13 -17 17 -13 4 -26 12 -30 18 -5 7 -8 6 -8 -4 0 -10
-5 -8 -15 7 -9 13 -23 20 -35 18 -11 -2 -26 2 -34 10 -7 8 -16 11 -20 8 -3 -4
-6 0 -7 8 0 8 -4 6 -9 -6 -8 -19 -9 -19 -9 -1 -1 11 -4 17 -7 13 -4 -3 -13 1
-21 9 -9 8 -22 13 -29 10 -8 -3 -14 -2 -14 2 0 4 -11 8 -25 8 -14 1 -25 -3
-25 -9 0 -6 -3 -7 -6 -4 -4 4 -1 14 6 22 11 13 11 16 0 13 -8 -2 -21 -10 -30
-18 -8 -9 -11 -10 -6 -3 5 8 4 13 -3 13 -7 0 -9 5 -5 13 4 6 4 9 -1 5 -4 -4
-16 -3 -26 3 -15 8 -18 6 -13 -8 5 -17 5 -17 -9 -1 -10 13 -16 15 -25 6 -9 -9
-12 -9 -12 2 0 10 -3 11 -11 3 -15 -15 -39 -5 -39 16 0 11 -3 12 -8 4 -10 -15
-48 -9 -44 7 1 6 -2 9 -8 5 -6 -3 -8 -11 -5 -16 4 -5 2 -9 -4 -9 -5 0 -11 5
-13 11 -2 5 -24 11 -50 13 -26 1 -45 -1 -42 -5 2 -4 -4 -6 -13 -4 -10 2 -26 4
-36 4 -10 1 -15 6 -12 12 4 6 -2 5 -13 -2 -17 -11 -24 -10 -38 2 -11 9 -15 9
-10 2z m560 -101 c3 -5 -1 -9 -9 -9 -8 0 -12 4 -9 9 3 4 7 8 9 8 2 0 6 -4 9
-8z m140 -50 c3 -5 -1 -9 -9 -9 -8 0 -12 4 -9 9 3 4 7 8 9 8 2 0 6 -4 9 -8z
m676 -3207 c-7 -9 -15 -13 -17 -11 -6 6 20 36 26 30 2 -2 -2 -10 -9 -19z
m-280 -271 c0 -8 -19 -13 -24 -6 -3 5 1 9 9 9 8 0 15 -2 15 -3z"/>
<path d="M1406 3933 c-6 -14 -5 -15 5 -6 7 7 10 15 7 18 -3 3 -9 -2 -12 -12z"/>
<path d="M4165 3360 c3 -5 8 -10 11 -10 2 0 4 5 4 10 0 6 -5 10 -11 10 -5 0
-7 -4 -4 -10z"/>
<path d="M833 1685 c0 -8 4 -12 9 -9 5 3 6 10 3 15 -9 13 -12 11 -12 -6z"/>
<path d="M4265 1634 c-9 -15 -12 -23 -6 -20 11 7 35 46 28 46 -3 0 -12 -12
-22 -26z"/>
<path d="M4165 1410 c-10 -11 -14 -20 -9 -20 5 0 15 9 22 20 7 11 11 20 9 20
-2 0 -12 -9 -22 -20z"/>
<path d="M956 1392 c-3 -5 1 -9 9 -9 8 0 12 4 9 9 -3 4 -7 8 -9 8 -2 0 -6 -4
-9 -8z"/>
</g>
</svg>
